<svg width="14" height="24" viewBox="0 0 14 24" fill="none" xmlns="http://www.w3.org/2000/svg">
<path d="M11.375 0C12.0712 0 12.7389 0.276562 13.2312 0.768845C13.7234 1.26113 14 1.92881 14 2.625V20.7083C14 21.4045 13.7234 22.0722 13.2312 22.5645C12.7389 23.0568 12.0712 23.3333 11.375 23.3333H2.625C1.92881 23.3333 1.26113 23.0568 0.768845 22.5645C0.276562 22.0722 0 21.4045 0 20.7083V2.625C0 1.92881 0.276562 1.26113 0.768845 0.768845C1.26113 0.276562 1.92881 0 2.625 0H11.375ZM11.375 1.75H2.625C2.39294 1.75 2.17038 1.84219 2.00628 2.00628C1.84219 2.17038 1.75 2.39294 1.75 2.625V20.7083C1.75 21.1913 2.142 21.5833 2.625 21.5833H11.375C11.6071 21.5833 11.8296 21.4911 11.9937 21.3271C12.1578 21.163 12.25 20.9404 12.25 20.7083V2.625C12.25 2.39294 12.1578 2.17038 11.9937 2.00628C11.8296 1.84219 11.6071 1.75 11.375 1.75ZM8.45717 18.0833C8.68923 18.083 8.91191 18.1749 9.07623 18.3388C9.24054 18.5027 9.33302 18.7251 9.33333 18.9572C9.33364 19.1892 9.24175 19.4119 9.07788 19.5762C8.914 19.7405 8.69156 19.833 8.4595 19.8333L5.54283 19.838C5.31077 19.8383 5.08809 19.7464 4.92377 19.5825C4.75946 19.4187 4.66698 19.1962 4.66667 18.9642C4.66636 18.7321 4.75825 18.5094 4.92212 18.3451C5.086 18.1808 5.30843 18.0883 5.5405 18.088L8.45717 18.0833Z" fill="#E52F00"/>
</svg>
